<?xml version="1.0" standalone="no"?>
<!DOCTYPE svg PUBLIC "-//W3C//DTD SVG 20010904//EN"
 "http://www.w3.org/TR/2001/REC-SVG-20010904/DTD/svg10.dtd">
<svg version="1.0" xmlns="http://www.w3.org/2000/svg"
 width="794.000000pt" height="794.000000pt" viewBox="0 0 794.000000 794.000000"
 preserveAspectRatio="xMidYMid meet">
<metadata>
Created by potrace 1.14, written by Peter Selinger 2001-2017
</metadata>
<g transform="translate(0.000000,794.000000) scale(0.100000,-0.100000)"
fill="#000000" stroke="none">
<path d="M3695 7570 c-27 -5 -66 -11 -85 -13 -85 -13 -122 -21 -228 -48 -115
-30 -141 -39 -272 -91 -67 -27 -233 -109 -285 -141 -286 -176 -504 -379 -687
-642 -184 -264 -322 -613 -363 -920 -15 -108 -18 -136 -20 -185 -2 -30 -4 -61
-4 -67 -1 -10 -183 -13 -876 -13 l-875 0 0 -1979 0 -1978 230 1 c145 1 231 -3
233 -9 2 -5 3 -261 3 -568 l-1 -559 305 312 c168 172 418 427 556 568 l251
256 1174 0 1174 1 0 850 c0 812 1 850 18 855 10 3 230 5 488 4 l470 0 162
-166 c89 -91 322 -330 518 -530 196 -199 371 -378 388 -397 17 -19 34 -32 37
-29 2 3 6 259 7 569 l2 563 30 7 c17 4 71 15 120 24 356 64 705 230 1000 475
77 64 267 265 331 350 121 162 220 339 294 524 49 124 104 319 114 402 2 16 6
39 9 50 20 71 30 475 14 589 -4 28 -9 68 -12 90 -3 22 -7 51 -10 65 -3 14 -8
36 -10 50 -3 14 -18 75 -35 135 -17 61 -32 115 -33 120 -2 6 -9 21 -17 35 -7
14 -12 25 -11 25 9 0 -67 174 -116 265 -59 111 -177 289 -228 346 -5 6 -35 40
-65 75 -185 213 -437 403 -695 524 -122 58 -127 60 -195 84 -130 45 -190 62
-350 96 -8 1 -35 6 -60 9 -25 3 -56 9 -70 13 -35 10 -2263 12 -2325 3z m385
-74 c96 -5 258 -29 345 -50 132 -33 263 -78 328 -112 15 -9 27 -12 27 -9 0 16
375 -199 410 -235 3 -3 37 -30 75 -61 106 -84 235 -216 325 -331 44 -57 84
-108 90 -115 5 -7 10 -14 10 -17 0 -2 17 -31 38 -63 67 -101 202 -389 217
-463 2 -8 4 -15 5 -15 1 0 3 -7 5 -15 1 -8 8 -35 15 -60 7 -25 12 -46 12 -47
-1 -2 4 -17 9 -35 5 -18 12 -44 14 -58 2 -14 6 -38 9 -55 3 -16 8 -48 10 -71
5 -41 5 -41 -36 -53 -58 -18 -130 -93 -147 -154 -19 -67 -9 -147 25 -201 30
-48 110 -106 145 -106 20 0 21 -3 15 -62 -4 -35 -9 -72 -11 -83 -3 -11 -7 -31
-9 -45 -37 -229 -203 -612 -348 -805 -110 -147 -259 -308 -371 -402 -94 -80
-245 -179 -378 -250 -76 -41 -290 -131 -329 -138 -11 -2 -24 -6 -28 -9 -5 -3
-19 -7 -33 -10 -13 -3 -51 -12 -84 -21 -178 -45 -504 -78 -506 -51 0 6 -2 411
-2 899 -2 781 0 890 13 897 8 4 17 8 20 7 26 -3 114 41 151 76 114 106 135
268 53 398 -82 131 -253 180 -392 112 -85 -41 -155 -122 -167 -195 -3 -18 -8
-34 -9 -36 -4 -3 -316 -4 -1349 -2 l-417 0 5 58 c3 31 8 77 10 102 5 64 17
154 21 161 2 4 6 24 10 45 3 22 13 64 21 94 8 30 18 69 22 85 40 157 173 434
290 600 133 188 353 412 503 510 8 6 51 34 94 63 135 90 450 233 567 257 10 2
27 7 37 10 10 3 29 8 42 10 13 3 34 7 48 10 136 29 155 31 320 40 69 4 127 9
129 11 3 2 12 2 20 -1 9 -2 59 -7 111 -9z m1867 0 c29 -3 70 -9 90 -12 21 -3
49 -7 63 -9 46 -6 145 -28 260 -59 61 -17 213 -76 300 -118 303 -146 546 -343
771 -628 41 -51 109 -150 109 -157 0 -5 7 -16 16 -27 24 -28 130 -241 159
-321 31 -83 73 -212 80 -240 2 -11 6 -29 9 -40 22 -97 31 -143 41 -226 23
-177 18 -455 -9 -595 -2 -12 -7 -37 -10 -55 -3 -19 -12 -64 -21 -99 -9 -36
-18 -75 -21 -88 -22 -106 -206 -518 -236 -530 -4 -2 -8 -8 -8 -13 0 -17 -106
-163 -195 -268 -69 -82 -225 -228 -321 -299 -98 -74 -265 -180 -273 -173 -2 1
-7 -1 -10 -6 -6 -8 -105 -58 -171 -85 -51 -22 -104 -43 -110 -44 -3 0 -12 -4
-20 -7 -30 -13 -226 -66 -264 -71 -21 -4 -41 -8 -45 -10 -3 -2 -33 -7 -66 -11
-33 -4 -71 -9 -85 -12 -47 -9 -1430 -11 -1430 -2 0 5 3 8 8 7 8 -2 82 22 176
57 180 67 458 231 596 351 108 93 219 204 276 274 16 19 37 44 47 55 10 11 34
44 55 75 20 30 39 57 42 60 27 24 140 230 198 360 29 65 97 262 106 310 3 14
10 45 17 70 15 64 25 117 34 189 7 57 14 68 53 79 48 15 104 65 132 119 44 85
24 204 -46 278 -29 30 -93 65 -118 65 -9 0 -16 17 -21 46 -3 25 -8 56 -11 67
-2 12 -6 36 -9 52 -2 17 -6 39 -9 50 -2 11 -9 43 -16 70 -38 171 -156 448
-262 619 -151 241 -368 473 -593 633 -90 63 -239 151 -335 196 -144 67 -323
130 -336 118 -4 -3 -5 -1 -2 4 7 11 1324 12 1415 1z m-2717 -2127 l114 -1 252
-253 253 -252 -1 -126 c-1 -112 -3 -125 -16 -114 -53 43 -740 742 -736 749 3
5 9 6 13 4 4 -3 59 -6 121 -7z m-1479 -26 c2 -79 9 -172 14 -203 3 -19 7 -53
10 -75 6 -54 40 -207 60 -275 9 -30 17 -60 19 -67 1 -7 5 -16 9 -19 4 -4 7
-16 7 -26 0 -10 4 -26 9 -36 13 -24 51 -111 51 -116 0 -8 71 -152 100 -201 15
-27 36 -63 44 -80 20 -37 127 -186 181 -252 46 -55 251 -263 260 -263 3 0 16
-9 28 -21 12 -11 58 -47 102 -80 110 -81 107 -78 99 -102 -11 -33 -5 -112 11
-158 27 -75 77 -132 160 -180 34 -19 55 -23 130 -24 105 0 157 20 227 89 23
23 45 40 49 39 131 -40 277 -68 409 -78 41 -3 85 -8 97 -10 l21 -5 -1 -812 -2
-813 -1882 -2 -1883 -1 -1 26 c0 35 0 3766 0 3770 1 1 377 2 836 2 l835 0 1
-27z m1266 -805 l832 -833 -1 -115 c0 -63 -2 -118 -5 -122 -3 -6 -1849 1834
-1894 1888 -10 12 7 14 112 14 l124 0 832 -832z m200 200 l631 -633 0 -137 c0
-76 -3 -138 -7 -138 -3 0 -335 329 -736 731 -402 402 -748 749 -770 770 l-40
39 145 0 145 0 632 -632z m195 193 l437 -440 -1 -135 c0 -75 -2 -136 -3 -136
-1 0 -1125 1125 -1144 1146 -2 2 58 4 135 4 l138 0 438 -439z m185 411 c13
-90 104 -196 197 -231 l51 -19 3 -51 c2 -31 -1 -51 -7 -51 -9 0 -96 85 -331
325 l-55 56 69 -3 c64 -3 69 -5 73 -26z m253 -2029 l0 -26 -87 7 c-101 8 -150
14 -176 22 -21 7 -237 222 -237 235 0 22 -45 101 -74 132 -32 34 -119 87 -142
87 -8 0 -1212 1197 -1271 1264 -2 2 -8 43 -19 134 -8 67 -12 166 -7 174 2 4
456 -445 1008 -998 800 -801 1005 -1011 1005 -1031z m-1403 1021 c300 -300
541 -549 537 -554 -5 -4 -25 -13 -45 -19 -20 -6 -54 -25 -75 -40 l-38 -29
-396 397 c-367 367 -398 400 -419 456 -13 33 -28 64 -33 70 -4 5 -8 18 -8 30
0 12 -5 26 -11 32 -6 6 -12 17 -13 24 -3 19 -36 129 -47 157 -5 12 -6 22 -3
22 3 0 251 -246 551 -546z m286 -663 c-12 -18 -321 262 -414 374 -41 50 -109
141 -109 147 0 4 118 -112 263 -255 144 -144 262 -264 260 -266z m664 -287
l38 -36 -35 7 c-19 4 -38 9 -42 12 -7 3 -8 53 -2 53 2 0 20 -16 41 -36z"/>
<path d="M4950 5640 c-110 -31 -180 -121 -181 -234 -2 -136 109 -247 240 -242
68 3 95 10 129 32 101 66 140 193 94 305 -17 41 -71 98 -115 120 -42 22 -125
31 -167 19z"/>
<path d="M890 3700 c-68 -23 -115 -63 -145 -125 -23 -48 -26 -144 -6 -195 18
-45 76 -107 122 -129 19 -10 62 -18 95 -20 135 -5 236 85 249 224 10 98 -47
193 -140 235 -59 27 -116 30 -175 10z"/>
<path d="M1947 3709 c-142 -32 -219 -164 -183 -316 4 -18 12 -33 17 -33 5 0 9
-6 9 -14 0 -20 73 -83 117 -101 112 -48 252 8 309 122 25 50 25 164 1 210 -33
62 -104 119 -161 128 -60 11 -74 11 -109 4z"/>
</g>
</svg>
